<svg width="570" height="361" viewBox="0 0 570 361" fill="none" xmlns="http://www.w3.org/2000/svg">
<path d="M159.889 58.7591L158.813 49.1211L152.809 49.7924C152.044 47.6457 150.942 45.6724 149.575 43.9277L153.348 39.2065L145.776 33.15L142.003 37.8712C140.001 36.9233 137.835 36.2815 135.574 36.0085L134.905 30L125.271 31.0733L125.94 37.0819C123.793 37.8491 121.823 38.9483 120.079 40.3167L115.357 36.5397L109.304 44.1158L114.026 47.8928C113.077 49.8957 112.437 52.0608 112.164 54.3255L106 55.2772L107.231 64.6348L113.235 63.9636C114 66.1103 115.102 68.0836 116.469 69.8282L112.696 74.5495L120.268 80.606L124.041 75.8847C126.043 76.8327 128.209 77.4745 130.47 77.7474L131.139 83.756L140.773 82.6826L140.104 76.6741C142.251 75.9069 144.221 74.8077 145.965 73.4393L150.687 77.2163L156.74 69.6401L152.018 65.8631C152.967 63.8603 153.607 61.6951 153.88 59.4304L159.885 58.7591H159.889ZM134.376 69.0278C127.666 69.7766 121.62 64.941 120.874 58.228C120.127 51.5149 124.957 45.4695 131.668 44.7207C138.378 43.972 144.424 48.8076 145.17 55.5206C145.917 62.2337 141.087 68.2791 134.376 69.0278Z" fill="#757575"/>
<path d="M288.212 223.91L270.074 217.943L257.464 256.138L275.601 262.105L288.212 223.91Z" fill="#EDEDED"/>
<path d="M285.465 232.265L265.192 232.763L270.089 217.943L288.225 223.911L285.465 232.265Z" fill="#424242"/>
<path d="M263.493 237.905L281.371 244.658L275.602 262.101L257.466 256.137L263.493 237.905Z" fill="#424242"/>
<path d="M234.55 244.505L214.413 241.076L207.445 281.85L227.582 285.278L234.55 244.505Z" fill="#EDEDED"/>
<path d="M233.062 253.312L211.552 257.919L214.434 241.073L234.57 244.5L233.062 253.312Z" fill="#424242"/>
<path d="M211.015 263.942L230.142 270.382L227.596 285.272L207.46 281.846L211.015 263.942Z" fill="#424242"/>
<path d="M207.557 274.17L207.18 274.506C202.878 278.356 202.354 282.229 199.412 288.264L221.595 300.86L256.893 307.322L263.541 304.81L262.354 299.458L243.893 289.68L231.894 278.902L229.825 274.295L226.096 273.661L222.467 276.044L221.846 279.681C217.944 281.193 217.131 282.089 215.372 281.79C215.335 281.772 212.342 281.565 211.884 278.6L211.411 275.546C211.13 273.724 208.931 272.938 207.553 274.17H207.557Z" fill="#424242"/>
<path d="M263.54 304.81L252.144 305.039L222.999 299.473L199.408 288.264L195.292 290.883L192.413 298.732L201.234 304.526C201.234 304.526 208.096 305.662 216.795 307.175L219.256 305.459L222.519 306.016L224.293 308.451C237.891 310.804 252.628 313.272 252.628 313.272L261.238 310.572L262.934 308.329L263.537 304.807L263.54 304.81Z" fill="#424242"/>
<path d="M204.25 279.017L203.77 278.371C203.319 277.763 199.354 272.385 199.003 270.71C198.814 269.818 198.984 268.907 199.483 268.143C199.982 267.38 200.75 266.856 201.641 266.668C203.485 266.28 205.303 267.461 205.691 269.301C206.046 270.976 204.594 277.493 204.424 278.231L204.246 279.017H204.25ZM202.351 267.332C202.169 267.332 201.985 267.35 201.796 267.391C201.094 267.538 200.496 267.948 200.104 268.545C199.712 269.143 199.579 269.858 199.727 270.555C199.967 271.691 202.48 275.332 203.884 277.272C204.383 274.93 205.214 270.592 204.974 269.456C204.708 268.198 203.592 267.335 202.354 267.335L202.351 267.332Z" fill="#0A0A0A"/>
<path d="M230.442 283.793C230.302 283.793 230.168 283.716 230.106 283.579C230.021 283.395 230.098 283.174 230.283 283.089L234.644 281.064C234.828 280.979 235.05 281.056 235.135 281.241C235.22 281.425 235.142 281.647 234.958 281.731L230.597 283.756C230.545 283.778 230.494 283.79 230.442 283.79V283.793Z" fill="#0A0A0A"/>
<path d="M233.424 286.626C233.284 286.626 233.151 286.549 233.088 286.412C233.003 286.228 233.081 286.006 233.265 285.922L237.626 283.897C237.811 283.812 238.032 283.889 238.117 284.074C238.202 284.258 238.125 284.479 237.94 284.564L233.58 286.589C233.528 286.611 233.476 286.622 233.424 286.622V286.626Z" fill="#0A0A0A"/>
<path d="M236.41 289.455C236.269 289.455 236.136 289.378 236.073 289.241C235.988 289.057 236.066 288.835 236.251 288.751L240.611 286.726C240.796 286.641 241.018 286.718 241.103 286.903C241.188 287.087 241.11 287.308 240.925 287.393L236.565 289.418C236.513 289.44 236.461 289.451 236.41 289.451V289.455Z" fill="#0A0A0A"/>
<path d="M234.898 106.005L239.082 133.093L248.15 175.433C251.283 190.073 250.932 205.24 247.115 219.717L234.902 266.059H204.327L216.222 203.41L204.331 133.119H204.327V106.005H234.902H234.898Z" fill="#424242"/>
<path d="M234.895 266.428H204.32C204.209 266.428 204.105 266.38 204.035 266.295C203.965 266.21 203.935 266.1 203.957 265.993L215.842 203.41L203.972 133.237C203.961 133.2 203.954 133.163 203.954 133.122V106.008C203.954 105.806 204.12 105.64 204.323 105.64H234.898C235.079 105.64 235.235 105.772 235.264 105.953L239.447 133.041L248.512 175.359C251.642 189.98 251.283 205.354 247.473 219.817L235.257 266.159C235.212 266.321 235.068 266.435 234.898 266.435L234.895 266.428ZM204.767 265.69H234.614L246.757 219.621C250.541 205.273 250.895 190.017 247.788 175.507L238.719 133.167L234.58 106.37H204.689V133.06L216.581 203.347C216.588 203.392 216.588 203.436 216.581 203.477L204.77 265.687L204.767 265.69Z" fill="#0A0A0A"/>
<path d="M219.596 138.43L216.832 111.456L247.252 108.354L247.695 112.662L295.187 162.693C301.865 169.727 304.455 179.69 302.046 189.077L288.82 240.623L259.117 240.933L266.408 186.543L226.758 137.7L219.596 138.43Z" fill="#424242"/>
<path d="M242.828 120.331L204.319 112.408V110.007H242.828V120.331Z" fill="#424242"/>
<path d="M171.305 86.655L258.877 31.3425C263.792 28.2405 270.295 29.6974 273.407 34.5957C276.518 39.4977 275.059 45.9858 270.144 49.0878L247.499 63.3917V112.386H201.6V92.3795L182.569 104.4C177.654 107.502 171.15 106.045 168.039 101.143C164.927 96.2413 166.387 89.7533 171.302 86.6513L171.305 86.655Z" fill="#8633FF"/>
<path d="M395.035 254.621L447.631 272.964V93.143L395.035 74.8002V254.621Z" fill="white"/>
<path d="M289.858 254.595L237.263 272.942V93.1208L289.858 74.7743V254.595Z" fill="white"/>
<path d="M289.858 254.595L342.454 272.942V93.1209L289.858 74.7744V254.595Z" fill="white"/>
<path d="M395.035 254.621L342.439 272.964V93.143L395.035 74.8002V254.621Z" fill="white"/>
<path d="M447.629 273.333C447.588 273.333 447.548 273.325 447.507 273.311L394.912 254.968C394.764 254.916 394.664 254.776 394.664 254.621V74.8001C394.664 74.6821 394.723 74.5677 394.819 74.4976C394.915 74.4276 395.041 74.4091 395.156 74.4497L447.751 92.7925C447.899 92.8442 447.999 92.9843 447.999 93.1392V272.96C447.999 273.078 447.939 273.193 447.843 273.263C447.78 273.307 447.707 273.329 447.629 273.329V273.333ZM395.403 254.359L447.259 272.444V93.4048L395.403 75.3202V254.359Z" fill="#0A0A0A"/>
<path d="M289.858 254.595L237.263 272.942V93.1209L289.858 74.7744V254.595Z" fill="#E0E0E0"/>
<path d="M342.454 273.311C342.414 273.311 342.373 273.303 342.332 273.288L289.737 254.946C289.589 254.894 289.489 254.754 289.489 254.599V74.7743C289.489 74.6563 289.548 74.542 289.644 74.4719C289.741 74.4018 289.866 74.3834 289.981 74.4239L342.576 92.7668C342.724 92.8184 342.824 92.9586 342.824 93.1135V272.934C342.824 273.052 342.765 273.167 342.668 273.237C342.606 273.281 342.532 273.303 342.454 273.303V273.311ZM290.228 254.333L342.085 272.418V93.3827L290.228 75.2981V254.337V254.333Z" fill="#0A0A0A"/>
<path d="M395.034 254.621L342.438 272.964V93.143L395.034 74.8002V254.621Z" fill="#E0E0E0"/>
<path d="M447.631 230.476C447.546 230.476 447.458 230.447 447.391 230.388L394.973 185.019C394.818 184.887 394.803 184.654 394.936 184.499C395.069 184.344 395.302 184.33 395.457 184.463L447.875 229.831C448.03 229.964 448.045 230.196 447.912 230.351C447.838 230.436 447.735 230.476 447.631 230.476Z" fill="#8633FF"/>
<path d="M342.441 205.586C342.293 205.586 342.156 205.498 342.097 205.358C342.019 205.17 342.112 204.956 342.3 204.878L394.4 183.817C394.53 183.765 394.677 183.791 394.781 183.88L395.453 184.463C395.609 184.595 395.623 184.828 395.49 184.983C395.357 185.138 395.125 185.152 394.969 185.019L394.467 184.584L342.577 205.561C342.533 205.579 342.485 205.586 342.437 205.586H342.441Z" fill="white"/>
<path d="M336.542 207.973C336.402 207.973 336.269 207.892 336.206 207.759L289.486 106.728C289.401 106.543 289.482 106.322 289.667 106.237C289.852 106.152 290.073 106.234 290.158 106.418L336.73 207.132L342.303 204.878C342.491 204.801 342.709 204.893 342.783 205.081C342.861 205.269 342.769 205.483 342.58 205.561L336.682 207.947C336.638 207.966 336.59 207.973 336.542 207.973Z" fill="#8633FF"/>
<path d="M238.587 123.971C238.436 123.971 238.292 123.875 238.24 123.724C238.173 123.532 238.277 123.322 238.469 123.256L289.431 105.632C289.608 105.57 289.808 105.654 289.886 105.828L290.159 106.422C290.244 106.606 290.163 106.827 289.978 106.912C289.793 106.997 289.571 106.916 289.486 106.731L289.353 106.44L238.709 123.953C238.669 123.968 238.628 123.975 238.587 123.975V123.971Z" fill="white"/>
<path d="M310.162 150.923C309.958 150.923 309.792 150.757 309.792 150.554V83.5014C309.792 83.2986 309.958 83.1326 310.162 83.1326C310.365 83.1326 310.531 83.2986 310.531 83.5014V150.554C310.531 150.757 310.365 150.923 310.162 150.923Z" fill="#8633FF"/>
<path d="M238.587 247.425C238.532 247.425 238.48 247.414 238.428 247.388C238.243 247.299 238.166 247.078 238.254 246.894L263.194 195.391V114.96C263.194 114.758 263.36 114.592 263.564 114.592C263.767 114.592 263.933 114.758 263.933 114.96V195.473C263.933 195.528 263.922 195.583 263.896 195.635L238.92 247.211C238.857 247.344 238.724 247.421 238.587 247.421V247.425Z" fill="white"/>
<path d="M289.86 226.721C289.767 226.721 289.679 226.688 289.608 226.622C289.461 226.482 289.453 226.249 289.59 226.102L326.654 186.558C326.794 186.41 327.027 186.403 327.175 186.539C327.323 186.679 327.33 186.912 327.193 187.059L290.129 226.603C290.055 226.681 289.959 226.721 289.86 226.721Z" fill="#8633FF"/>
<path d="M374.789 192.511C374.586 192.511 374.42 192.345 374.42 192.142V81.86C374.42 81.6571 374.586 81.4911 374.789 81.4911C374.993 81.4911 375.159 81.6571 375.159 81.86V192.138C375.159 192.341 374.993 192.507 374.789 192.507V192.511Z" fill="white"/>
<path d="M237.263 273.311C237.189 273.311 237.112 273.289 237.049 273.244C236.953 273.174 236.894 273.064 236.894 272.942V93.121C236.894 92.9624 236.993 92.8259 237.141 92.7742L289.737 74.4314C289.847 74.3908 289.973 74.4093 290.073 74.4794C290.169 74.5494 290.228 74.6601 290.228 74.7818V254.603C290.228 254.761 290.128 254.898 289.98 254.949L237.385 273.292C237.344 273.307 237.304 273.314 237.263 273.314V273.311ZM237.633 93.3828V272.422L289.489 254.337V75.2945L237.633 93.3792V93.3828Z" fill="#0A0A0A"/>
<path d="M342.44 273.333C342.366 273.333 342.288 273.311 342.226 273.266C342.129 273.196 342.07 273.086 342.07 272.964V93.1431C342.07 92.9844 342.17 92.848 342.318 92.7963L394.913 74.4535C395.028 74.4129 395.15 74.4314 395.25 74.5015C395.346 74.5715 395.405 74.6822 395.405 74.8039V254.625C395.405 254.783 395.305 254.92 395.157 254.972L342.562 273.314C342.521 273.329 342.48 273.336 342.44 273.336V273.333ZM342.809 93.4049V272.444L394.666 254.359V75.3203L342.809 93.4049Z" fill="#0A0A0A"/>
<path d="M269.7 184.035L290.323 148.194C296.605 133.443 285.76 117.078 269.7 117.078C253.64 117.078 242.794 133.443 249.076 148.194L269.7 184.035Z" fill="#8633FF"/>
<path d="M269.7 184.403C269.567 184.403 269.445 184.333 269.378 184.219L248.755 148.378C248.755 148.378 248.74 148.352 248.736 148.337C245.736 141.296 246.471 133.281 250.702 126.9C254.933 120.519 262.032 116.709 269.7 116.709C277.368 116.709 284.466 120.519 288.698 126.9C292.929 133.281 293.66 141.296 290.663 148.337C290.656 148.352 290.652 148.363 290.645 148.378L270.021 184.219C269.955 184.333 269.833 184.403 269.7 184.403ZM249.409 148.031L269.7 183.293L289.991 148.031C292.884 141.222 292.167 133.477 288.08 127.309C283.99 121.135 277.116 117.446 269.7 117.446C262.283 117.446 255.41 121.131 251.319 127.309C247.232 133.477 246.519 141.222 249.409 148.031Z" fill="#0A0A0A"/>
<path d="M273.533 155.781C282.505 153.667 288.062 144.694 285.944 135.739C283.827 126.783 274.837 121.237 265.865 123.35C256.892 125.464 251.336 134.437 253.453 143.393C255.571 152.348 264.561 157.895 273.533 155.781Z" fill="white"/>
<path d="M414.553 112.751L435.177 76.91C441.459 62.1597 430.613 45.7939 414.553 45.7939C398.493 45.7939 387.648 62.1597 393.93 76.91L414.553 112.751Z" fill="#8633FF"/>
<path d="M414.553 113.12C414.42 113.12 414.298 113.05 414.232 112.935L393.608 77.0944C393.608 77.0944 393.594 77.0686 393.59 77.0538C390.589 70.0125 391.325 61.9975 395.556 55.6164C399.787 49.2353 406.886 45.4251 414.553 45.4251C422.221 45.4251 429.32 49.2353 433.551 55.6164C437.782 61.9975 438.514 70.0125 435.517 77.0538C435.51 77.0686 435.506 77.0797 435.498 77.0944L414.875 112.935C414.808 113.05 414.686 113.12 414.553 113.12ZM394.259 76.7477L414.55 112.01L434.841 76.7477C437.734 69.9388 437.021 62.1929 432.93 56.0258C428.84 49.8513 421.966 46.1628 414.55 46.1628C407.133 46.1628 400.26 49.8476 396.169 56.0258C392.082 62.1929 391.369 69.9388 394.259 76.7477Z" fill="#0A0A0A"/>
<path d="M426.353 80.0543C432.871 73.5478 432.871 62.9988 426.353 56.4923C419.834 49.9858 409.266 49.9858 402.747 56.4923C396.229 62.9987 396.229 73.5478 402.747 80.0543C409.266 86.5608 419.834 86.5608 426.353 80.0543Z" fill="white"/>
<path d="M414.553 126.159C416.875 126.159 418.758 124.279 418.758 121.961C418.758 119.643 416.875 117.764 414.553 117.764C412.23 117.764 410.348 119.643 410.348 121.961C410.348 124.279 412.23 126.159 414.553 126.159Z" fill="#8633FF"/>
<path d="M269.7 199.511C272.023 199.511 273.906 197.632 273.906 195.314C273.906 192.996 272.023 191.116 269.7 191.116C267.378 191.116 265.495 192.996 265.495 195.314C265.495 197.632 267.378 199.511 269.7 199.511Z" fill="#8633FF"/>
<path d="M301.786 88.3813L306.147 87.0387L309.332 95.4079C309.816 96.6435 309.258 97.9455 308.083 98.3218C306.908 98.698 305.563 98.0009 305.079 96.7652L301.786 88.3813Z" fill="#EDEDED"/>
<path d="M305.172 84.774L309.425 83.4166L312.718 91.8005C313.202 93.0362 312.644 94.3382 311.469 94.7144C310.294 95.087 308.948 94.3935 308.464 93.1579L305.172 84.774Z" fill="#EDEDED"/>
<path d="M309.122 82.6641L312.921 81.4543L315.862 88.9419C316.295 90.0448 315.796 91.2067 314.746 91.5423C313.697 91.878 312.496 91.2546 312.064 90.1518L309.122 82.6641Z" fill="#EDEDED"/>
<path d="M298.262 92.5161L302.26 90.362L313.723 103.995C314.506 104.924 314.384 106.311 313.449 107.093C312.515 107.875 311.125 107.753 310.345 106.82L298.265 92.5161H298.262Z" fill="#EDEDED"/>
<path d="M288.346 81.7642L296.801 84.8736L295.859 100.258C295.881 101.545 294.869 102.504 293.598 102.401C292.326 102.298 291.277 101.173 291.255 99.8894L291.133 92.9108L288.343 81.7679L288.346 81.7642Z" fill="#EDEDED"/>
<path d="M288.38 81.3842L280.276 69.2012L294.174 60.2972L301.521 71.038L312.906 81.4359L298.882 93.1874L288.38 81.3842Z" fill="#EDEDED"/>
<path d="M280.276 69.2012L294.174 60.2972L297.072 64.159L285.842 77.633L280.276 69.2012Z" fill="#424242"/>
<path d="M308.98 98.1299C308.869 98.1299 308.758 98.0783 308.684 97.9824C308.563 97.8201 308.596 97.5877 308.758 97.466C309.154 97.1709 309.453 96.732 308.987 95.5406L306.064 88.0604C305.991 87.8722 306.083 87.6583 306.275 87.5809C306.464 87.5071 306.678 87.5993 306.752 87.7911L309.675 95.2713C309.856 95.7361 310.41 97.1451 309.205 98.0525C309.139 98.1041 309.061 98.1262 308.984 98.1262L308.98 98.1299Z" fill="#0A0A0A"/>
<path d="M310.817 95.1828C309.686 95.1828 308.57 94.4414 308.119 93.2906L306.064 88.0604C305.991 87.8723 306.083 87.6583 306.275 87.5809C306.467 87.5071 306.678 87.5993 306.756 87.7911L308.81 93.0214C309.224 94.0763 310.366 94.6775 311.36 94.3603C311.8 94.2201 312.151 93.914 312.35 93.4935C312.572 93.0251 312.583 92.457 312.376 91.9333L309.435 84.4715C309.361 84.2834 309.453 84.0694 309.642 83.992C309.834 83.9182 310.044 84.0104 310.122 84.1985L313.063 91.6603C313.344 92.3759 313.326 93.1579 313.015 93.807C312.727 94.4119 312.217 94.8546 311.582 95.0574C311.33 95.1386 311.075 95.1754 310.82 95.1754L310.817 95.1828Z" fill="#0A0A0A"/>
<path d="M314.162 91.9996C313.134 91.9996 312.122 91.3283 311.715 90.2844L309.432 84.4714C309.358 84.2833 309.45 84.0693 309.642 83.9919C309.831 83.9181 310.045 84.0103 310.123 84.2021L312.406 90.0152C312.769 90.9373 313.766 91.4648 314.635 91.1881C315.019 91.0664 315.322 90.8008 315.496 90.4357C315.692 90.0262 315.699 89.532 315.518 89.0746L312.576 81.587C312.502 81.3989 312.595 81.185 312.787 81.1075C312.975 81.0337 313.19 81.1259 313.267 81.3177L316.209 88.8054C316.464 89.4545 316.449 90.1627 316.165 90.7529C315.902 91.3025 315.44 91.7045 314.86 91.8889C314.635 91.9627 314.402 91.9959 314.169 91.9959L314.162 91.9996Z" fill="#0A0A0A"/>
<path d="M312.033 107.975C311.297 107.975 310.566 107.661 310.059 107.06L298.597 93.4272C298.467 93.2722 298.486 93.0399 298.641 92.9071C298.796 92.778 299.029 92.7964 299.162 92.9513L310.625 106.584C311.275 107.359 312.436 107.458 313.212 106.809C313.588 106.495 313.818 106.053 313.858 105.566C313.903 105.079 313.751 104.603 313.437 104.231L302.266 90.3436C302.137 90.185 302.163 89.9526 302.321 89.8235C302.48 89.6944 302.713 89.7202 302.842 89.8788L314.01 103.759C314.446 104.279 314.656 104.943 314.597 105.629C314.538 106.311 314.213 106.931 313.688 107.373C313.208 107.775 312.62 107.971 312.036 107.971L312.033 107.975Z" fill="#0A0A0A"/>
<path d="M293.786 102.777C293.716 102.777 293.642 102.777 293.572 102.77C292.119 102.652 290.915 101.365 290.889 99.8967L290.767 92.955L288.032 81.5354L281.274 71.547C281.159 71.3774 281.203 71.1487 281.373 71.0343C281.543 70.92 281.772 70.9643 281.887 71.1339L288.683 81.1777C288.709 81.2145 288.727 81.2551 288.734 81.2994L291.491 92.8222C291.498 92.848 291.502 92.8738 291.502 92.9033L291.624 99.882C291.643 100.981 292.541 101.948 293.627 102.032C294.133 102.073 294.603 101.914 294.95 101.586C295.305 101.254 295.497 100.782 295.486 100.262L296.081 90.5316C296.092 90.3288 296.265 90.1739 296.472 90.1849C296.676 90.196 296.831 90.373 296.82 90.5759L296.225 100.277C296.24 100.981 295.966 101.645 295.456 102.121C295.005 102.545 294.418 102.77 293.782 102.77L293.786 102.777Z" fill="#0A0A0A"/>
<path d="M298.881 93.5562C298.782 93.5562 298.682 93.5156 298.608 93.4382L293.848 88.2743C293.712 88.1231 293.719 87.8907 293.87 87.7542C294.022 87.6177 294.255 87.6251 294.391 87.7763L299.151 92.9402C299.288 93.0914 299.28 93.3238 299.129 93.4603C299.059 93.5267 298.966 93.5562 298.878 93.5562H298.881Z" fill="#0A0A0A"/>
<path d="M312.906 81.8047C312.817 81.8047 312.729 81.7715 312.658 81.7088L301.277 71.311C301.255 71.2925 301.236 71.2704 301.221 71.2483L295.276 62.6172C295.161 62.4475 295.202 62.2189 295.372 62.1045C295.542 61.9902 295.771 62.0307 295.885 62.2004L301.809 70.7983L313.161 81.1666C313.313 81.3031 313.324 81.5391 313.183 81.6867C313.109 81.7678 313.01 81.8047 312.91 81.8047H312.906Z" fill="#0A0A0A"/>
<path d="M299.097 62.8827L281.648 73.8892L256.209 42.9539L268.522 32.0765C269.235 31.4458 271.012 31.8626 271.655 32.5634L299.1 62.8827H299.097Z" fill="#8633FF"/>
<path d="M281.648 74.258C281.541 74.258 281.434 74.2138 281.363 74.1216L257.141 44.6653C257.011 44.5067 257.033 44.2744 257.192 44.1453C257.351 44.0162 257.584 44.0383 257.713 44.1969L281.936 73.6531C282.066 73.8117 282.043 74.0441 281.884 74.1732C281.814 74.2285 281.733 74.258 281.652 74.258H281.648Z" fill="#0A0A0A"/>
<path d="M176.601 106.005H215.801V84.7701H176.601V106.005Z" fill="#8633FF"/>
<path d="M215.801 106.374H201.578C201.375 106.374 201.209 106.208 201.209 106.005C201.209 105.802 201.375 105.636 201.578 105.636H215.432V85.1389H181.59C181.387 85.1389 181.221 84.973 181.221 84.7701C181.221 84.5672 181.387 84.4012 181.59 84.4012H215.801C216.005 84.4012 216.171 84.5672 216.171 84.7701V106.005C216.171 106.208 216.005 106.374 215.801 106.374Z" fill="#0A0A0A"/>
<path d="M215.801 88.3258V103.316H240.282C241.117 103.316 241.912 103.67 242.466 104.29L243.63 105.584C244.68 106.753 246.542 106.654 247.459 105.381C248.072 104.533 248.068 103.404 247.488 102.563L248.138 101.663C248.885 100.631 248.796 99.2179 247.932 98.2847L247.277 97.5802C247.935 96.5622 247.824 95.2196 246.989 94.3196L245.895 93.143L245.914 93.1319C246.372 92.1618 246.206 90.9926 245.456 90.1811L244.487 89.1373C242.632 87.1381 240.024 85.9984 237.289 85.9984H228.084C224.267 85.9984 223.284 88.3258 221.591 88.3258H215.801Z" fill="#EDEDED"/>
<path d="M221.155 88.3258L215.801 103.316V88.3258H221.155Z" fill="#424242"/>
<path d="M247.278 97.9491C247.207 97.9491 247.141 97.9306 247.078 97.8901C246.908 97.7794 246.856 97.5507 246.967 97.3811C247.536 96.4995 247.437 95.3413 246.72 94.5704L245.005 92.7225C243.697 91.3135 241.842 90.5057 239.917 90.5057H235.198C234.994 90.5057 234.828 90.3398 234.828 90.1369C234.828 89.934 234.994 89.768 235.198 89.768H239.917C242.045 89.768 244.1 90.6606 245.545 92.2209L247.259 94.0688C248.205 95.0868 248.338 96.6139 247.588 97.7794C247.518 97.8901 247.4 97.9491 247.278 97.9491Z" fill="#0A0A0A"/>
<path d="M247.485 102.94C247.411 102.94 247.334 102.917 247.271 102.87C247.105 102.751 247.068 102.519 247.186 102.353L247.84 101.446C248.479 100.561 248.405 99.336 247.663 98.5356L245.604 96.3188C244.514 95.1422 242.966 94.4709 241.362 94.4709H235.158C234.954 94.4709 234.788 94.3049 234.788 94.102C234.788 93.8991 234.954 93.7332 235.158 93.7332H241.362C243.173 93.7332 244.917 94.493 246.147 95.8171L248.206 98.0339C249.189 99.0925 249.288 100.708 248.442 101.877L247.788 102.785C247.714 102.884 247.603 102.94 247.489 102.94H247.485Z" fill="#0A0A0A"/>
<path d="M230.623 103.685H215.432V87.957H221.592C222.157 87.957 222.663 87.6213 223.303 87.2008C224.363 86.5 225.679 85.6295 228.084 85.6295H237.289C240.116 85.6295 242.84 86.8172 244.758 88.8865L245.726 89.9303C246.576 90.8451 246.779 92.1618 246.251 93.2905C246.166 93.4749 245.944 93.5524 245.759 93.4676C245.574 93.3827 245.497 93.1614 245.582 92.977C245.984 92.125 245.829 91.1254 245.186 90.4319L244.218 89.3881C242.437 87.4701 239.913 86.3672 237.289 86.3672H228.084C225.904 86.3672 224.688 87.1713 223.709 87.8168C222.996 88.2889 222.379 88.6984 221.592 88.6984H216.171V102.951H230.623C230.826 102.951 230.993 103.117 230.993 103.32C230.993 103.522 230.826 103.688 230.623 103.688V103.685Z" fill="#0A0A0A"/>
<path d="M245.46 106.768C244.654 106.768 243.897 106.433 243.354 105.828L242.19 104.533C241.706 103.991 241.007 103.681 240.279 103.681H225.531C222.841 103.681 220.332 102.353 218.82 100.129C218.706 99.9593 218.75 99.7306 218.92 99.6163C219.09 99.5019 219.319 99.5462 219.434 99.7158C220.809 101.737 223.089 102.943 225.531 102.943H240.279C241.218 102.943 242.112 103.342 242.74 104.039L243.904 105.333C244.329 105.806 244.935 106.056 245.574 106.023C246.21 105.99 246.787 105.673 247.16 105.16C247.74 104.36 247.67 103.249 246.997 102.523L244.85 100.21C243.738 99.0113 242.164 98.3253 240.527 98.3253H235.361C235.157 98.3253 234.991 98.1593 234.991 97.9564C234.991 97.7536 235.157 97.5876 235.361 97.5876H240.527C242.367 97.5876 244.141 98.3622 245.39 99.7085L247.537 102.021C248.449 103.002 248.542 104.503 247.755 105.592C247.252 106.289 246.469 106.717 245.608 106.761C245.556 106.761 245.504 106.765 245.453 106.765L245.46 106.768Z" fill="#0A0A0A"/>
<path d="M219.726 54.141C225.361 54.141 229.929 49.6773 229.929 44.171C229.929 38.6648 225.361 34.2011 219.726 34.2011C214.091 34.2011 209.523 38.6648 209.523 44.171C209.523 49.6773 214.091 54.141 219.726 54.141Z" fill="#0A0A0A"/>
<path d="M218.488 61.1565L226.359 64.9925V50.5927H218.488V61.1565Z" fill="#EDEDED"/>
<path d="M218.488 53.5693V50.5927H226.363V57.1656C225.653 57.3057 224.234 57.4828 222.609 56.9516C220.062 56.1143 218.813 54.1299 218.488 53.573V53.5693Z" fill="#0A0A0A"/>
<path d="M223.492 55.2549C226.99 55.2549 229.826 52.1288 229.826 48.2726C229.826 44.4164 226.99 41.2903 223.492 41.2903C219.994 41.2903 217.158 44.4164 217.158 48.2726C217.158 52.1288 219.994 55.2549 223.492 55.2549Z" fill="#EDEDED"/>
<path d="M220.779 51.3045C221.393 51.8651 222.18 52.2414 223.07 52.3299C225.055 52.5291 226.84 51.2455 227.331 49.3828L220.779 51.3045Z" fill="white"/>
<path d="M439.568 339.364C439.483 339.364 439.402 339.335 439.339 339.283C439.262 339.221 439.214 339.132 439.203 339.036L438.508 332.814C436.25 332.511 434.059 331.873 431.982 330.922L428.072 335.812C428.009 335.89 427.921 335.938 427.825 335.949C427.725 335.96 427.629 335.931 427.551 335.871L419.344 329.31C419.185 329.184 419.159 328.952 419.285 328.793L423.194 323.899C421.809 322.084 420.704 320.081 419.913 317.945L413.694 318.639C413.491 318.661 413.313 318.521 413.287 318.322L411.953 308.178C411.927 307.979 412.064 307.795 412.264 307.765L418.668 306.777C418.971 304.512 419.606 302.317 420.56 300.233L415.667 296.324C415.508 296.198 415.482 295.966 415.608 295.807L422.171 287.597C422.234 287.519 422.322 287.471 422.418 287.46C422.518 287.449 422.614 287.479 422.692 287.538L427.581 291.447C429.395 290.061 431.394 288.958 433.53 288.165L432.836 281.942C432.813 281.739 432.957 281.559 433.161 281.536L443.604 280.371C443.7 280.36 443.8 280.389 443.877 280.448C443.955 280.511 444.003 280.6 444.014 280.696L444.709 286.918C446.966 287.22 449.158 287.859 451.235 288.81L455.144 283.919C455.207 283.842 455.296 283.794 455.392 283.783C455.488 283.772 455.588 283.801 455.665 283.86L463.872 290.422C464.031 290.551 464.057 290.78 463.932 290.938L460.022 295.833C461.408 297.648 462.513 299.651 463.303 301.786L469.523 301.093C469.619 301.082 469.718 301.111 469.796 301.17C469.874 301.233 469.922 301.321 469.933 301.417L471.097 311.863C471.119 312.066 470.975 312.247 470.772 312.269L464.552 312.962C464.249 315.22 463.614 317.414 462.66 319.491L467.553 323.401C467.712 323.53 467.738 323.759 467.612 323.917L461.049 332.128C460.986 332.205 460.898 332.253 460.802 332.264C460.702 332.275 460.606 332.246 460.528 332.187L455.639 328.277C453.825 329.664 451.826 330.767 449.69 331.56L450.385 337.782C450.407 337.985 450.263 338.166 450.059 338.188L439.616 339.353C439.616 339.353 439.591 339.353 439.576 339.353L439.568 339.364ZM431.875 330.095C431.927 330.095 431.982 330.106 432.034 330.132C434.207 331.161 436.512 331.829 438.888 332.12C439.058 332.142 439.191 332.275 439.21 332.445L439.894 338.59L449.601 337.509L448.918 331.364C448.899 331.195 448.999 331.032 449.161 330.977C451.416 330.173 453.518 329.011 455.41 327.528C455.547 327.421 455.735 327.425 455.868 327.528L460.698 331.39L466.799 323.755L461.969 319.893C461.836 319.786 461.792 319.602 461.866 319.447C462.893 317.274 463.562 314.969 463.85 312.59C463.872 312.42 464.006 312.287 464.175 312.269L470.317 311.583L469.234 301.871L463.093 302.557C462.923 302.576 462.76 302.476 462.705 302.314C461.899 300.056 460.739 297.954 459.257 296.062C459.15 295.929 459.154 295.737 459.257 295.604L463.119 290.772L455.488 284.672L451.626 289.504C451.519 289.636 451.334 289.681 451.179 289.607C449.01 288.578 446.7 287.91 444.324 287.619C444.154 287.597 444.021 287.464 444.003 287.294L443.319 281.149L433.612 282.234L434.295 288.379C434.314 288.548 434.214 288.711 434.051 288.766C431.797 289.57 429.695 290.732 427.803 292.215C427.666 292.322 427.477 292.318 427.344 292.215L422.515 288.353L416.414 295.988L421.243 299.85C421.376 299.957 421.421 300.141 421.347 300.296C420.32 302.469 419.651 304.774 419.362 307.153C419.344 307.315 419.215 307.448 419.052 307.474L412.729 308.448L413.971 317.875L420.12 317.189C420.29 317.171 420.453 317.27 420.508 317.433C421.314 319.69 422.474 321.793 423.956 323.685C424.063 323.818 424.059 324.009 423.956 324.142L420.094 328.974L427.725 335.075L431.587 330.243C431.657 330.154 431.768 330.103 431.875 330.103V330.095ZM441.582 323.493C438.504 323.493 435.541 322.457 433.105 320.509C430.264 318.237 428.479 314.995 428.072 311.376C427.241 303.911 432.636 297.161 440.101 296.327C443.715 295.925 447.273 296.954 450.115 299.226C452.957 301.499 454.741 304.741 455.148 308.359C455.979 315.825 450.584 322.575 443.12 323.408C442.606 323.467 442.092 323.493 441.582 323.493ZM441.634 296.98C441.154 296.98 440.67 297.006 440.182 297.061C433.124 297.847 428.021 304.235 428.808 311.295C429.188 314.714 430.881 317.783 433.567 319.934C436.254 322.084 439.616 323.058 443.038 322.674C450.096 321.888 455.2 315.5 454.412 308.44C454.032 305.021 452.339 301.952 449.653 299.802C447.347 297.958 444.546 296.98 441.634 296.98Z" fill="#0A0A0A"/>
<path d="M343.248 309.178H276.3V242.354H327.243L343.248 285.881V309.178Z" fill="white"/>
<path d="M343.248 309.547H276.3C276.097 309.547 275.931 309.381 275.931 309.178V242.354C275.931 242.151 276.097 241.985 276.3 241.985H327.244C327.399 241.985 327.536 242.081 327.591 242.228L343.596 285.756C343.61 285.797 343.618 285.841 343.618 285.881V309.178C343.618 309.381 343.451 309.547 343.248 309.547ZM276.67 308.809H342.879V285.948L326.985 242.722H276.67V308.809Z" fill="#0A0A0A"/>
<path d="M341.379 280.791L296.917 275.764V252.386H330.581L341.379 280.791Z" fill="#FFCA00"/>
<path d="M341.379 281.16C341.379 281.16 341.349 281.16 341.338 281.16L297.223 276.133C297.035 276.111 296.895 275.952 296.895 275.768V252.39C296.895 252.187 297.061 252.021 297.264 252.021H330.928C331.084 252.021 331.22 252.117 331.276 252.265L341.73 280.67C341.774 280.791 341.752 280.924 341.674 281.024C341.604 281.112 341.497 281.164 341.382 281.164L341.379 281.16ZM297.63 275.436L340.824 280.36L330.666 252.755H297.63V275.436Z" fill="#0A0A0A"/>
<path d="M268.751 211.444H84.0293V309.108H268.751V211.444Z" fill="white"/>
<path d="M268.751 309.477H84.0297C83.8264 309.477 83.6602 309.311 83.6602 309.108V211.444C83.6602 211.241 83.8264 211.075 84.0297 211.075H268.751C268.954 211.075 269.12 211.241 269.12 211.444V309.108C269.12 309.311 268.954 309.477 268.751 309.477ZM84.3992 308.739H268.381V211.813H84.3992V308.739Z" fill="#0A0A0A"/>
<path d="M344.051 309.108H92.3633V324.43H344.051V309.108Z" fill="#0A0A0A"/>
<path d="M312.267 309.178H276.301V298.352H287.727C297.068 298.352 305.974 302.28 312.264 309.178H312.267Z" fill="#0A0A0A"/>
<path d="M330.581 309.679H286.839C286.636 309.679 286.47 309.513 286.47 309.311V248.609C286.47 248.406 286.636 248.24 286.839 248.24H317.577C317.732 248.24 317.869 248.336 317.924 248.484L330.932 283.864C330.947 283.904 330.954 283.949 330.954 283.989V309.311C330.954 309.513 330.788 309.679 330.584 309.679H330.581ZM287.205 308.942H330.207V284.052L317.311 248.978H287.201V308.942H287.205Z" fill="#0A0A0A"/>
<path d="M324.749 251.151H318.504V271.411H324.749V251.151Z" fill="#0A0A0A"/>
<path d="M324.749 272.452H318.504V279.84H324.749V272.452Z" fill="#0A0A0A"/>
<path d="M343.249 290.256H339.683V303.439H343.249V290.256Z" fill="#0A0A0A"/>
<path d="M305.413 284.148H292.808C292.605 284.148 292.438 283.982 292.438 283.779C292.438 283.576 292.605 283.41 292.808 283.41H305.413C305.616 283.41 305.782 283.576 305.782 283.779C305.782 283.982 305.616 284.148 305.413 284.148Z" fill="#0A0A0A"/>
<path d="M292.893 345.631C302.35 345.631 310.017 337.979 310.017 328.539C310.017 319.099 302.35 311.446 292.893 311.446C283.435 311.446 275.769 319.099 275.769 328.539C275.769 337.979 283.435 345.631 292.893 345.631Z" fill="white"/>
<path d="M292.893 346C283.248 346 275.399 338.166 275.399 328.539C275.399 318.912 283.248 311.077 292.893 311.077C302.538 311.077 310.387 318.912 310.387 328.539C310.387 338.166 302.538 346 292.893 346ZM292.893 311.815C283.655 311.815 276.138 319.317 276.138 328.539C276.138 337.76 283.655 345.262 292.893 345.262C302.131 345.262 309.648 337.76 309.648 328.539C309.648 319.317 302.131 311.815 292.893 311.815Z" fill="#0A0A0A"/>
<path d="M292.892 335.857C296.941 335.857 300.224 332.58 300.224 328.539C300.224 324.497 296.941 321.221 292.892 321.221C288.843 321.221 285.561 324.497 285.561 328.539C285.561 332.58 288.843 335.857 292.892 335.857Z" fill="white"/>
<path d="M292.892 336.222C288.647 336.222 285.191 332.773 285.191 328.535C285.191 324.297 288.647 320.848 292.892 320.848C297.138 320.848 300.593 324.297 300.593 328.535C300.593 332.773 297.138 336.222 292.892 336.222ZM292.892 321.59C289.053 321.59 285.93 324.706 285.93 328.539C285.93 332.371 289.053 335.488 292.892 335.488C296.732 335.488 299.854 332.371 299.854 328.539C299.854 324.706 296.732 321.59 292.892 321.59Z" fill="#0A0A0A"/>
<path d="M143.524 345.631C152.982 345.631 160.649 337.979 160.649 328.539C160.649 319.099 152.982 311.446 143.524 311.446C134.067 311.446 126.4 319.099 126.4 328.539C126.4 337.979 134.067 345.631 143.524 345.631Z" fill="white"/>
<path d="M143.525 346C133.88 346 126.031 338.166 126.031 328.539C126.031 318.912 133.88 311.077 143.525 311.077C153.17 311.077 161.018 318.912 161.018 328.539C161.018 338.166 153.17 346 143.525 346ZM143.525 311.815C134.287 311.815 126.77 319.317 126.77 328.539C126.77 337.76 134.287 345.262 143.525 345.262C152.763 345.262 160.279 337.76 160.279 328.539C160.279 319.317 152.763 311.815 143.525 311.815Z" fill="#0A0A0A"/>
<path d="M143.524 335.857C147.573 335.857 150.855 332.58 150.855 328.539C150.855 324.497 147.573 321.221 143.524 321.221C139.475 321.221 136.192 324.497 136.192 328.539C136.192 332.58 139.475 335.857 143.524 335.857Z" fill="white"/>
<path d="M143.524 336.222C139.278 336.222 135.823 332.773 135.823 328.535C135.823 324.297 139.278 320.848 143.524 320.848C147.77 320.848 151.225 324.297 151.225 328.535C151.225 332.773 147.77 336.222 143.524 336.222ZM143.524 321.59C139.685 321.59 136.562 324.706 136.562 328.539C136.562 332.371 139.685 335.488 143.524 335.488C147.364 335.488 150.486 332.371 150.486 328.539C150.486 324.706 147.364 321.59 143.524 321.59Z" fill="#0A0A0A"/>
<path d="M143.949 246.761H88.9219V301.686H143.949V246.761Z" fill="#FFCA00"/>
<path d="M143.949 302.059H88.9223C88.719 302.059 88.5527 301.893 88.5527 301.69V246.761C88.5527 246.558 88.719 246.392 88.9223 246.392H143.949C144.152 246.392 144.319 246.558 144.319 246.761V301.69C144.319 301.893 144.152 302.059 143.949 302.059ZM89.2918 301.321H143.58V247.13H89.2918V301.321Z" fill="#0A0A0A"/>
<path d="M92.8383 287.467C92.635 287.467 92.4688 287.301 92.4688 287.099V250.675C92.4688 250.472 92.635 250.306 92.8383 250.306H120.269C120.472 250.306 120.638 250.472 120.638 250.675C120.638 250.878 120.472 251.044 120.269 251.044H93.2078V287.099C93.2078 287.301 93.0415 287.467 92.8383 287.467Z" fill="#0A0A0A"/>
<path d="M140.032 298.146H110.056C109.853 298.146 109.687 297.98 109.687 297.777C109.687 297.574 109.853 297.408 110.056 297.408H139.663V264.219C139.663 264.016 139.829 263.85 140.032 263.85C140.236 263.85 140.402 264.016 140.402 264.219V297.777C140.402 297.98 140.236 298.146 140.032 298.146Z" fill="#0A0A0A"/>
<path d="M92.8393 293.767C92.7469 293.767 92.6509 293.73 92.5807 293.66C92.4365 293.517 92.4328 293.284 92.577 293.14L134.67 250.417C134.814 250.273 135.047 250.269 135.191 250.413C135.335 250.557 135.339 250.789 135.195 250.933L93.1017 293.657C93.0278 293.73 92.9354 293.767 92.8393 293.767Z" fill="#0A0A0A"/>
<path d="M98.2563 298.145C98.1639 298.145 98.0679 298.109 97.9976 298.039C97.8535 297.895 97.8498 297.662 97.994 297.518L139.769 255.116C139.914 254.972 140.146 254.968 140.29 255.112C140.435 255.256 140.438 255.488 140.294 255.632L98.5187 298.035C98.4448 298.109 98.3524 298.145 98.2563 298.145Z" fill="#0A0A0A"/>
<path d="M98.5854 281.367C98.3821 281.367 98.2158 281.201 98.2158 280.998V253.614C98.2158 253.412 98.3821 253.246 98.5854 253.246C98.7886 253.246 98.9549 253.412 98.9549 253.614V280.998C98.9549 281.201 98.7886 281.367 98.5854 281.367Z" fill="#FFAC00"/>
<path d="M105.757 275.509C105.554 275.509 105.388 275.343 105.388 275.14V253.614C105.388 253.412 105.554 253.246 105.757 253.246C105.96 253.246 106.127 253.412 106.127 253.614V275.14C106.127 275.343 105.96 275.509 105.757 275.509Z" fill="#FFAC00"/>
<path d="M112.931 268.999C112.728 268.999 112.562 268.833 112.562 268.63V253.614C112.562 253.412 112.728 253.246 112.931 253.246C113.134 253.246 113.301 253.412 113.301 253.614V268.63C113.301 268.833 113.134 268.999 112.931 268.999Z" fill="#FFAC00"/>
<path d="M120.107 262.489C119.904 262.489 119.737 262.323 119.737 262.12V253.614C119.737 253.412 119.904 253.246 120.107 253.246C120.31 253.246 120.476 253.412 120.476 253.614V262.12C120.476 262.323 120.31 262.489 120.107 262.489Z" fill="#FFAC00"/>
<path d="M134.781 295.364C134.577 295.364 134.411 295.198 134.411 294.996V267.612C134.411 267.409 134.577 267.243 134.781 267.243C134.984 267.243 135.15 267.409 135.15 267.612V294.996C135.15 295.198 134.984 295.364 134.781 295.364Z" fill="#FFAC00"/>
<path d="M127.608 295.364C127.405 295.364 127.238 295.198 127.238 294.996V273.47C127.238 273.267 127.405 273.101 127.608 273.101C127.811 273.101 127.977 273.267 127.977 273.47V294.996C127.977 295.198 127.811 295.364 127.608 295.364Z" fill="#FFAC00"/>
<path d="M120.431 295.364C120.228 295.364 120.062 295.198 120.062 294.996V279.98C120.062 279.777 120.228 279.611 120.431 279.611C120.634 279.611 120.801 279.777 120.801 279.98V294.996C120.801 295.198 120.634 295.364 120.431 295.364Z" fill="#FFAC00"/>
<path d="M113.259 295.364C113.056 295.364 112.89 295.198 112.89 294.996V286.49C112.89 286.287 113.056 286.121 113.259 286.121C113.462 286.121 113.629 286.287 113.629 286.49V294.996C113.629 295.198 113.462 295.364 113.259 295.364Z" fill="#FFAC00"/>
<path d="M113.795 262.014L100.068 256.973L96.5862 266.42L110.313 271.461L113.795 262.014Z" fill="white"/>
<path d="M110.314 271.832C110.273 271.832 110.229 271.825 110.184 271.81L96.4563 266.768C96.3639 266.734 96.29 266.664 96.2494 266.576C96.2087 266.487 96.205 266.384 96.2383 266.296L99.7193 256.849C99.7895 256.658 100.004 256.562 100.192 256.632L113.92 261.674C114.013 261.707 114.087 261.777 114.127 261.866C114.168 261.954 114.172 262.057 114.138 262.146L110.657 271.592C110.602 271.74 110.462 271.836 110.31 271.836L110.314 271.832ZM97.0586 266.203L110.092 270.991L113.318 262.234L100.285 257.447L97.0586 266.203Z" fill="#0A0A0A"/>
<path d="M185.602 265.635H149.48V301.69H185.602V265.635Z" fill="#FFCA00"/>
<path d="M185.603 302.059H149.481C149.278 302.059 149.111 301.893 149.111 301.69V265.635C149.111 265.432 149.278 265.266 149.481 265.266H185.603C185.806 265.266 185.972 265.432 185.972 265.635V301.69C185.972 301.893 185.806 302.059 185.603 302.059ZM149.85 301.321H185.233V266.004H149.85V301.321Z" fill="#0A0A0A"/>
<path d="M152.053 292.48C151.85 292.48 151.684 292.314 151.684 292.111V268.202C151.684 268 151.85 267.834 152.053 267.834H170.06C170.264 267.834 170.43 268 170.43 268.202C170.43 268.405 170.264 268.571 170.06 268.571H152.423V292.111C152.423 292.314 152.256 292.48 152.053 292.48Z" fill="#0A0A0A"/>
<path d="M183.031 299.492H163.354C163.151 299.492 162.984 299.326 162.984 299.123C162.984 298.92 163.151 298.754 163.354 298.754H182.662V277.095C182.662 276.893 182.828 276.727 183.031 276.727C183.235 276.727 183.401 276.893 183.401 277.095V299.123C183.401 299.326 183.235 299.492 183.031 299.492Z" fill="#0A0A0A"/>
<path d="M152.053 296.615C151.961 296.615 151.865 296.578 151.795 296.508C151.65 296.364 151.647 296.132 151.791 295.988L179.421 267.944C179.565 267.8 179.798 267.797 179.942 267.941C180.086 268.084 180.09 268.317 179.945 268.461L152.316 296.504C152.242 296.578 152.149 296.615 152.053 296.615Z" fill="#0A0A0A"/>
<path d="M155.608 299.492C155.515 299.492 155.419 299.455 155.349 299.385C155.205 299.241 155.201 299.009 155.346 298.865L182.768 271.032C182.913 270.888 183.145 270.884 183.289 271.028C183.434 271.172 183.437 271.404 183.293 271.548L155.87 299.381C155.796 299.455 155.704 299.492 155.608 299.492Z" fill="#0A0A0A"/>
<path d="M155.822 288.478C155.618 288.478 155.452 288.312 155.452 288.109V270.135C155.452 269.932 155.618 269.766 155.822 269.766C156.025 269.766 156.191 269.932 156.191 270.135V288.109C156.191 288.312 156.025 288.478 155.822 288.478Z" fill="#FFAC00"/>
<path d="M160.534 284.631C160.33 284.631 160.164 284.465 160.164 284.262V270.132C160.164 269.929 160.33 269.763 160.534 269.763C160.737 269.763 160.903 269.929 160.903 270.132V284.262C160.903 284.465 160.737 284.631 160.534 284.631Z" fill="#FFAC00"/>
<path d="M165.241 280.356C165.037 280.356 164.871 280.19 164.871 279.987V270.132C164.871 269.929 165.037 269.763 165.241 269.763C165.444 269.763 165.61 269.929 165.61 270.132V279.987C165.61 280.19 165.444 280.356 165.241 280.356Z" fill="#FFAC00"/>
<path d="M169.954 276.085C169.75 276.085 169.584 275.919 169.584 275.716V270.132C169.584 269.929 169.75 269.763 169.954 269.763C170.157 269.763 170.323 269.929 170.323 270.132V275.716C170.323 275.919 170.157 276.085 169.954 276.085Z" fill="#FFAC00"/>
<path d="M179.583 297.662C179.38 297.662 179.214 297.496 179.214 297.294V279.32C179.214 279.117 179.38 278.951 179.583 278.951C179.787 278.951 179.953 279.117 179.953 279.32V297.294C179.953 297.496 179.787 297.662 179.583 297.662Z" fill="#FFAC00"/>
<path d="M174.875 297.662C174.672 297.662 174.506 297.496 174.506 297.294V283.163C174.506 282.96 174.672 282.794 174.875 282.794C175.079 282.794 175.245 282.96 175.245 283.163V297.294C175.245 297.496 175.079 297.662 174.875 297.662Z" fill="#FFAC00"/>
<path d="M170.168 297.662C169.965 297.662 169.799 297.496 169.799 297.293V287.438C169.799 287.235 169.965 287.069 170.168 287.069C170.372 287.069 170.538 287.235 170.538 287.438V297.293C170.538 297.496 170.372 297.662 170.168 297.662Z" fill="#FFAC00"/>
<path d="M165.456 297.662C165.253 297.662 165.087 297.496 165.087 297.294V291.709C165.087 291.506 165.253 291.34 165.456 291.34C165.66 291.34 165.826 291.506 165.826 291.709V297.294C165.826 297.496 165.66 297.662 165.456 297.662Z" fill="#FFAC00"/>
<path d="M165.808 275.648L156.798 272.339L154.511 278.542L163.521 281.851L165.808 275.648Z" fill="white"/>
<path d="M163.523 282.219C163.478 282.219 163.438 282.211 163.393 282.197L154.381 278.888C154.188 278.818 154.092 278.604 154.163 278.416L156.45 272.216C156.483 272.123 156.553 272.05 156.642 272.009C156.731 271.968 156.834 271.965 156.923 271.998L165.936 275.307C166.128 275.377 166.224 275.591 166.154 275.779L163.866 281.979C163.833 282.071 163.763 282.145 163.674 282.186C163.626 282.208 163.571 282.219 163.519 282.219H163.523ZM154.987 278.32L163.305 281.374L165.337 275.864L157.019 272.809L154.987 278.32Z" fill="#0A0A0A"/>
<path d="M189.183 302.623H260.754V248.539H189.183V302.623Z" fill="#FFCA00"/>
<path d="M260.754 302.992H189.183C188.98 302.992 188.813 302.826 188.813 302.623V248.539C188.813 248.336 188.98 248.17 189.183 248.17H260.754C260.957 248.17 261.123 248.336 261.123 248.539V302.623C261.123 302.826 260.957 302.992 260.754 302.992ZM189.553 302.255H260.384V248.908H189.553V302.255Z" fill="#0A0A0A"/>
<path d="M260.754 257.417H189.183C188.98 257.417 188.813 257.251 188.813 257.048V248.543C188.813 248.34 188.98 248.174 189.183 248.174H260.754C260.957 248.174 261.123 248.34 261.123 248.543V257.048C261.123 257.251 260.957 257.417 260.754 257.417ZM189.553 256.68H260.384V248.912H189.553V256.68Z" fill="#0A0A0A"/>
<path d="M239.676 289.939C242.218 289.939 244.28 287.881 244.28 285.343V280.747H235.071V285.343C235.071 287.881 237.133 289.939 239.676 289.939Z" fill="#0A0A0A"/>
<path d="M239.676 296.006C239.473 296.006 239.307 295.84 239.307 295.637V285.347C239.307 285.144 239.473 284.978 239.676 284.978C239.879 284.978 240.046 285.144 240.046 285.347V295.637C240.046 295.84 239.879 296.006 239.676 296.006Z" fill="#0A0A0A"/>
<path d="M243.023 296.006H236.328C236.124 296.006 235.958 295.84 235.958 295.637C235.958 295.435 236.124 295.269 236.328 295.269H243.023C243.227 295.269 243.393 295.435 243.393 295.637C243.393 295.84 243.227 296.006 243.023 296.006Z" fill="#0A0A0A"/>
<path d="M221.681 272.393H227.615V247.326H221.681V272.393Z" fill="white"/>
<path d="M227.615 272.761H221.68C221.477 272.761 221.311 272.595 221.311 272.393V247.326C221.311 247.123 221.477 246.957 221.68 246.957H227.615C227.818 246.957 227.984 247.123 227.984 247.326V272.393C227.984 272.595 227.818 272.761 227.615 272.761ZM222.05 272.024H227.245V247.695H222.05V272.024Z" fill="#0A0A0A"/>
<path d="M188.521 261.563V267.487H261.508V261.563H188.521Z" fill="white"/>
<path d="M261.508 267.856H188.522C188.319 267.856 188.152 267.69 188.152 267.487V261.563C188.152 261.36 188.319 261.194 188.522 261.194H261.508C261.711 261.194 261.878 261.36 261.878 261.563V267.487C261.878 267.69 261.711 267.856 261.508 267.856ZM188.891 267.118H261.138V261.932H188.891V267.118Z" fill="#0A0A0A"/>
<path d="M246.299 287.63H258.545C258.545 284.506 256.006 281.972 252.876 281.972H251.967C248.838 281.972 246.299 284.506 246.299 287.63Z" fill="#0A0A0A"/>
<path d="M253.483 296.006C252.692 296.006 252.049 295.364 252.049 294.575V280.751C252.049 280.548 252.215 280.382 252.418 280.382C252.622 280.382 252.788 280.548 252.788 280.751V294.575C252.788 294.959 253.098 295.269 253.483 295.269C253.867 295.269 254.177 294.959 254.177 294.575V293.317C254.177 293.114 254.344 292.948 254.547 292.948C254.75 292.948 254.916 293.114 254.916 293.317V294.575C254.916 295.364 254.273 296.006 253.483 296.006Z" fill="#0A0A0A"/>
<path d="M185.602 226.08H149.48V262.135H185.602V226.08Z" fill="#FFCA00"/>
<path d="M185.603 262.504H149.481C149.278 262.504 149.111 262.338 149.111 262.135V226.08C149.111 225.877 149.278 225.711 149.481 225.711H185.603C185.806 225.711 185.972 225.877 185.972 226.08V262.135C185.972 262.338 185.806 262.504 185.603 262.504ZM149.85 261.766H185.233V226.449H149.85V261.766Z" fill="#0A0A0A"/>
<path d="M152.053 252.928C151.85 252.928 151.684 252.762 151.684 252.56V228.651C151.684 228.448 151.85 228.282 152.053 228.282H170.06C170.264 228.282 170.43 228.448 170.43 228.651C170.43 228.854 170.264 229.02 170.06 229.02H152.423V252.56C152.423 252.762 152.256 252.928 152.053 252.928Z" fill="#0A0A0A"/>
<path d="M183.031 259.937H163.354C163.151 259.937 162.984 259.771 162.984 259.568C162.984 259.365 163.151 259.199 163.354 259.199H182.662V237.54C182.662 237.337 182.828 237.171 183.031 237.171C183.235 237.171 183.401 237.337 183.401 237.54V259.568C183.401 259.771 183.235 259.937 183.031 259.937Z" fill="#0A0A0A"/>
<path d="M152.053 257.063C151.961 257.063 151.865 257.026 151.795 256.956C151.65 256.812 151.647 256.58 151.791 256.436L179.421 228.393C179.565 228.249 179.798 228.245 179.942 228.389C180.086 228.533 180.09 228.765 179.945 228.909L152.316 256.953C152.242 257.026 152.149 257.063 152.053 257.063Z" fill="#0A0A0A"/>
<path d="M155.608 259.937C155.515 259.937 155.419 259.9 155.349 259.83C155.205 259.686 155.201 259.453 155.346 259.31L182.768 231.476C182.913 231.332 183.145 231.329 183.289 231.473C183.434 231.616 183.437 231.849 183.293 231.993L155.87 259.826C155.796 259.9 155.704 259.937 155.608 259.937Z" fill="#0A0A0A"/>
<path d="M155.822 248.923C155.618 248.923 155.452 248.757 155.452 248.554V230.58C155.452 230.377 155.618 230.211 155.822 230.211C156.025 230.211 156.191 230.377 156.191 230.58V248.554C156.191 248.757 156.025 248.923 155.822 248.923Z" fill="#FFAC00"/>
<path d="M160.534 245.076C160.33 245.076 160.164 244.91 160.164 244.707V230.576C160.164 230.373 160.33 230.207 160.534 230.207C160.737 230.207 160.903 230.373 160.903 230.576V244.707C160.903 244.91 160.737 245.076 160.534 245.076Z" fill="#FFAC00"/>
<path d="M165.241 240.805C165.037 240.805 164.871 240.639 164.871 240.436V230.58C164.871 230.377 165.037 230.211 165.241 230.211C165.444 230.211 165.61 230.377 165.61 230.58V240.436C165.61 240.639 165.444 240.805 165.241 240.805Z" fill="#FFAC00"/>
<path d="M169.954 236.53C169.75 236.53 169.584 236.364 169.584 236.161V230.576C169.584 230.373 169.75 230.207 169.954 230.207C170.157 230.207 170.323 230.373 170.323 230.576V236.161C170.323 236.364 170.157 236.53 169.954 236.53Z" fill="#FFAC00"/>
<path d="M179.583 258.111C179.38 258.111 179.214 257.945 179.214 257.742V239.768C179.214 239.565 179.38 239.399 179.583 239.399C179.787 239.399 179.953 239.565 179.953 239.768V257.742C179.953 257.945 179.787 258.111 179.583 258.111Z" fill="#FFAC00"/>
<path d="M174.875 258.111C174.672 258.111 174.506 257.945 174.506 257.742V243.611C174.506 243.409 174.672 243.243 174.875 243.243C175.079 243.243 175.245 243.409 175.245 243.611V257.742C175.245 257.945 175.079 258.111 174.875 258.111Z" fill="#FFAC00"/>
<path d="M170.168 258.111C169.965 258.111 169.799 257.945 169.799 257.742V247.886C169.799 247.683 169.965 247.517 170.168 247.517C170.372 247.517 170.538 247.683 170.538 247.886V257.742C170.538 257.945 170.372 258.111 170.168 258.111Z" fill="#FFAC00"/>
<path d="M165.456 258.111C165.253 258.111 165.087 257.945 165.087 257.742V252.158C165.087 251.955 165.253 251.789 165.456 251.789C165.66 251.789 165.826 251.955 165.826 252.158V257.742C165.826 257.945 165.66 258.111 165.456 258.111Z" fill="#FFAC00"/>
<path d="M165.813 236.091L156.803 232.782L154.516 238.986L163.526 242.294L165.813 236.091Z" fill="white"/>
<path d="M163.523 242.664C163.478 242.664 163.438 242.656 163.393 242.641L154.381 239.333C154.188 239.263 154.092 239.049 154.163 238.861L156.45 232.66C156.483 232.568 156.553 232.494 156.642 232.454C156.731 232.413 156.834 232.41 156.923 232.443L165.936 235.751C166.128 235.821 166.224 236.035 166.154 236.223L163.866 242.424C163.833 242.516 163.763 242.59 163.674 242.63C163.626 242.652 163.571 242.664 163.519 242.664H163.523ZM154.987 238.768L163.305 241.823L165.337 236.312L157.019 233.258L154.987 238.768Z" fill="#0A0A0A"/>
<path d="M362.464 61.0163L361.806 55.1184L358.133 55.5278C357.664 54.2147 356.991 53.0086 356.156 51.9426L358.466 49.0545L353.832 45.3513L351.522 48.2394C350.299 47.6603 348.973 47.2693 347.591 47.0996L347.18 43.4259L341.286 44.0825L341.696 47.7562C340.385 48.2246 339.176 48.8996 338.112 49.7332L335.222 47.4242L331.52 52.057L334.409 54.366C333.829 55.5905 333.437 56.9147 333.271 58.3016L329.502 58.8843L330.256 64.6089L333.929 64.1994C334.398 65.5125 335.071 66.7187 335.906 67.7847L333.596 70.6727L338.23 74.376L340.54 71.4879C341.763 72.067 343.09 72.458 344.472 72.6276L344.882 76.3014L350.776 75.6448L350.366 71.9711C351.678 71.5026 352.886 70.8277 353.95 69.9941L356.84 72.303L360.543 67.6703L357.653 65.3613C358.233 64.1367 358.625 62.8126 358.791 61.4257L362.464 61.0163ZM346.859 67.3015C342.753 67.7588 339.054 64.8007 338.6 60.6954C338.145 56.5901 341.098 52.8906 345.203 52.4332C349.309 51.9758 353.008 54.934 353.462 59.0393C353.917 63.1445 350.964 66.8441 346.859 67.3015Z" fill="#FFCA00"/>
</svg>
